{
    "asset" : {
        "generator" : "Khronos glTF Blender I/O v0.9.36",
        "version" : "2.0"
    },
    "scene" : 0,
    "scenes" : [
        {
            "name" : "Scene",
            "nodes" : [
                0
            ]
        }
    ],
    "nodes" : [
        {
            "mesh" : 0,
            "name" : "Barcelona",
            "rotation" : [
                0,
                0.7093341946601868,
                -0.7048723101615906,
                0
            ],
            "scale" : [
                -1.0000003576278687,
                -1.000340223312378,
                -0.1236901730298996
            ]
        }
    ],
    "materials" : [
        {
            "name" : "Material_0",
            "pbrMetallicRoughness" : {
                "baseColorFactor" : [
                    1,
                    1,
                    1,
                    1
                ],
                "metallicFactor" : 0.5,
                "roughnessFactor" : 0.5
            }
        }
    ],
    "meshes" : [
        {
            "name" : "Mesh_0",
            "primitives" : [
                {
                    "attributes" : {
                        "POSITION" : 0,
                        "NORMAL" : 1
                    },
                    "indices" : 2,
                    "material" : 0
                }
            ]
        }
    ],
    "accessors" : [
        {
            "bufferView" : 0,
            "componentType" : 5126,
            "count" : 35490,
            "max" : [
                447.1932067871094,
                -8.647683143615723,
                0
            ],
            "min" : [
                -38.295230865478516,
                -155.39349365234375,
                -5
            ],
            "type" : "VEC3"
        },
        {
            "bufferView" : 1,
            "componentType" : 5126,
            "count" : 35490,
            "type" : "VEC3"
        },
        {
            "bufferView" : 2,
            "componentType" : 5123,
            "count" : 35490,
            "type" : "SCALAR"
        }
    ],
    "bufferViews" : [
        {
            "buffer" : 0,
            "byteLength" : 425880,
            "byteOffset" : 0
        },
        {
            "buffer" : 0,
            "byteLength" : 425880,
            "byteOffset" : 425880
        },
        {
            "buffer" : 0,
            "byteLength" : 70980,
            "byteOffset" : 851760
        }
    ],
    "buffers" : [
        {
            "byteLength" : 922740,
            "uri" : "data:application/octet-stream;base64,"
        }
    ]
}
